<svg xmlns="http://www.w3.org/2000/svg" version="1.1" xmlns:xlink="http://www.w3.org/1999/xlink" xmlns:svgjs="http://svgjs.com/svgjs" width="1440" height="560" preserveAspectRatio="none" viewBox="0 0 1440 560"><g mask="url(&quot;#SvgjsMask1020&quot;)" fill="none"><rect width="1440" height="560" x="0" y="0" fill="rgba(10, 25, 47, 1)"></rect><path d="M298.01 166.71L294.63 154.36 305.94 148.35 302.55 136 313.86 129.98 310.48 117.63 321.78 111.62M305.36 169.88L301.97 157.53 313.28 151.52 309.9 139.16 321.21 133.15 317.82 120.8 329.13 114.79" stroke="#037b0b" stroke-width="2.66" stroke-dasharray="2, 2"></path><path d="M1073.43 522.71L1061.13 526.28 1054.95 515.07 1042.65 518.64 1036.46 507.43 1024.17 511 1017.98 499.79M1076.49 515.32L1064.19 518.89 1058 507.68 1045.7 511.25 1039.52 500.04 1027.22 503.61 1021.04 492.4" stroke="#d3b714" stroke-width="1.79" stroke-dasharray="2, 2"></path><rect width="113.4" height="113.4" clip-path="url(&quot;#SvgjsClipPath1021&quot;)" x="1129.65" y="189.77" fill="url(#SvgjsPattern1022)" transform="rotate(218.01, 1186.35, 246.47)"></rect><path d="M516.01 277.86a5.6 5.6 0 1 0 10.51 3.86 5.6 5.6 0 1 0-10.51-3.86zM531.02 283.37a5.6 5.6 0 1 0 10.52 3.87 5.6 5.6 0 1 0-10.52-3.87zM546.04 288.89a5.6 5.6 0 1 0 10.52 3.86 5.6 5.6 0 1 0-10.52-3.86zM561.06 294.41a5.6 5.6 0 1 0 10.52 3.86 5.6 5.6 0 1 0-10.52-3.86zM480.45 281.84a5.6 5.6 0 1 0 10.51 3.86 5.6 5.6 0 1 0-10.51-3.86zM495.47 287.36a5.6 5.6 0 1 0 10.51 3.86 5.6 5.6 0 1 0-10.51-3.86zM510.49 292.88a5.6 5.6 0 1 0 10.51 3.86 5.6 5.6 0 1 0-10.51-3.86zM525.51 298.39a5.6 5.6 0 1 0 10.51 3.86 5.6 5.6 0 1 0-10.51-3.86z" stroke="#d3b714" stroke-width="1.82" stroke-dasharray="3, 3"></path><rect width="344.32" height="344.32" clip-path="url(&quot;#SvgjsClipPath1023&quot;)" x="957.16" y="149.99" fill="url(#SvgjsPattern1024)" transform="rotate(318.68, 1129.32, 322.15)"></rect><rect width="72" height="72" clip-path="url(&quot;#SvgjsClipPath1025&quot;)" x="210.52" y="486.13" fill="url(#SvgjsPattern1026)" transform="rotate(123.79, 246.52, 522.13)"></rect><path d="M430.73 302.32L442.18 296.59 450.29 306.51 461.74 300.77 469.85 310.69 481.3 304.96 489.4 314.87M429.06 310.15L440.51 304.41 448.62 314.33 460.07 308.6 468.17 318.51 479.63 312.78 487.73 322.69M427.39 317.97L438.84 312.24 446.94 322.15 458.39 316.42 466.5 326.33 477.95 320.6 486.06 330.52" stroke="#037b0b" stroke-width="2.42"></path><path d="M343.99 433.77L331.25 432.43 329.77 419.7 317.04 418.36 315.56 405.64 302.82 404.29 301.34 391.57" stroke="#037b0b" stroke-width="2.87" stroke-dasharray="3, 3"></path><path d="M166.46 239.92a5.6 5.6 0 1 0 11.19-0.55 5.6 5.6 0 1 0-11.19 0.55zM182.44 239.13a5.6 5.6 0 1 0 11.19-0.56 5.6 5.6 0 1 0-11.19 0.56zM198.42 238.34a5.6 5.6 0 1 0 11.19-0.56 5.6 5.6 0 1 0-11.19 0.56zM214.4 237.54a5.6 5.6 0 1 0 11.19-0.55 5.6 5.6 0 1 0-11.19 0.55zM135.3 257.49a5.6 5.6 0 1 0 11.18-0.56 5.6 5.6 0 1 0-11.18 0.56zM151.28 256.7a5.6 5.6 0 1 0 11.18-0.56 5.6 5.6 0 1 0-11.18 0.56zM167.26 255.9a5.6 5.6 0 1 0 11.18-0.55 5.6 5.6 0 1 0-11.18 0.55zM183.24 255.11a5.6 5.6 0 1 0 11.18-0.55 5.6 5.6 0 1 0-11.18 0.55zM104.13 275.05a5.6 5.6 0 1 0 11.18-0.55 5.6 5.6 0 1 0-11.18 0.55zM120.11 274.26a5.6 5.6 0 1 0 11.18-0.55 5.6 5.6 0 1 0-11.18 0.55zM136.09 273.47a5.6 5.6 0 1 0 11.18-0.56 5.6 5.6 0 1 0-11.18 0.56zM152.07 272.68a5.6 5.6 0 1 0 11.18-0.56 5.6 5.6 0 1 0-11.18 0.56z" fill="#037b0b"></path><path d="M1228.14 509.67L1237.74 518.14 1231.58 529.37 1241.18 537.84 1235.02 549.07 1244.62 557.54 1238.46 568.77" stroke="#d3b714" stroke-width="1.99" stroke-dasharray="2, 2"></path><circle r="67.17124782846871" cx="50.24" cy="414.55" stroke="#037b0b" stroke-width="1.79" stroke-dasharray="4, 4"></circle><rect width="105.8" height="105.8" clip-path="url(&quot;#SvgjsClipPath1027&quot;)" x="1264.43" y="292.4" fill="url(#SvgjsPattern1028)" transform="rotate(238.12, 1317.33, 345.3)"></rect></g><defs><mask id="SvgjsMask1020"><rect width="1440" height="560" fill="#ffffff"></rect></mask><pattern x="0" y="0" width="11.34" height="11.34" patternUnits="userSpaceOnUse" id="SvgjsPattern1022"><path d="M5.67 1L5.67 10.34M1 5.67L10.34 5.67" stroke="#e73635" fill="none" stroke-width="1.69"></path></pattern><clipPath id="SvgjsClipPath1021"><circle r="28.35" cx="1186.35" cy="246.47"></circle></clipPath><pattern x="0" y="0" width="10.76" height="10.76" patternUnits="userSpaceOnUse" id="SvgjsPattern1024"><path d="M0 10.76L5.38 0L10.76 10.76" stroke="#d3b714" fill="none"></path></pattern><clipPath id="SvgjsClipPath1023"><circle r="86.08" cx="1129.32" cy="322.15"></circle></clipPath><pattern x="0" y="0" width="6" height="6" patternUnits="userSpaceOnUse" id="SvgjsPattern1026"><path d="M0 6L3 0L6 6" stroke="#e73635" fill="none"></path></pattern><clipPath id="SvgjsClipPath1025"><circle r="18" cx="246.52" cy="522.13"></circle></clipPath><pattern x="0" y="0" width="105.8" height="10.58" patternUnits="userSpaceOnUse" id="SvgjsPattern1028"><rect width="105.8" height="5.29" x="0" y="0" fill="#e73635"></rect><rect width="105.8" height="5.29" x="0" y="5.29" fill="rgba(0, 0, 0, 0)"></rect></pattern><clipPath id="SvgjsClipPath1027"><circle r="26.45" cx="1317.33" cy="345.3"></circle></clipPath></defs></svg>